HIERARCHY
ROOT Hips
{
	OFFSET 0.000000 97.167313 0.000000
	CHANNELS 6 Xposition Yposition Zposition Xrotation Yrotation Zrotation
	JOINT Spine
	{
		OFFSET 0.000000 13.784798 0.064400
		CHANNELS 3 Xrotation Yrotation Zrotation
		JOINT Spine1
		{
			OFFSET 0.000000 12.037903 0.404700
			CHANNELS 3 Xrotation Yrotation Zrotation
			JOINT Spine2
			{
				OFFSET 0.000000 17.795601 0.420200
				CHANNELS 3 Xrotation Yrotation Zrotation
				JOINT Neck
				{
					OFFSET 0.000000 39.131302 11.954600
					CHANNELS 3 Xrotation Yrotation Zrotation
					JOINT Head
					{
						OFFSET 0.000000 14.456192 15.627699
						CHANNELS 3 Xrotation Yrotation Zrotation
						JOINT HeadTop_End
						{
							OFFSET 0.000000 15.703506 7.603401
							CHANNELS 3 Xrotation Yrotation Zrotation
							End Site
							{
								OFFSET 0.000000 17.447403 0.000000
							}
						}
					}
				}
				JOINT LeftShoulder
				{
					OFFSET 17.399500 24.608795 1.168800
					CHANNELS 3 Xrotation Yrotation Zrotation
					JOINT LeftArm
					{
						OFFSET 18.980635 5.765305 1.818600
						CHANNELS 3 Xrotation Yrotation Zrotation
						JOINT LeftForeArm
						{
							OFFSET 49.290169 0.000000 0.000000
							CHANNELS 3 Xrotation Yrotation Zrotation
							JOINT LeftHand
							{
								OFFSET 31.562012 0.000000 0.000000
								CHANNELS 3 Xrotation Yrotation Zrotation
								JOINT LeftHandThumb1
								{
									OFFSET 6.133995 -4.388519 7.076070
									CHANNELS 3 Xrotation Yrotation Zrotation
									JOINT LeftHandThumb2
									{
										OFFSET 6.037666 -3.485840 3.485847
										CHANNELS 3 Xrotation Yrotation Zrotation
										JOINT LeftHandThumb3
										{
											OFFSET 6.496506 -3.750763 3.750761
											CHANNELS 3 Xrotation Yrotation Zrotation
											JOINT LeftHandThumb4
											{
												OFFSET 5.616882 -3.242905 3.242910
												CHANNELS 3 Xrotation Yrotation Zrotation
												End Site
												{
													OFFSET -1.254608 7.132141 0.375429
												}
											}
										}
									}
								}
								JOINT LeftHandPinky1
								{
									OFFSET 18.920792 -0.453171 -11.426712
									CHANNELS 3 Xrotation Yrotation Zrotation
									JOINT LeftHandPinky2
									{
										OFFSET 4.919586 0.000000 0.000000
										CHANNELS 3 Xrotation Yrotation Zrotation
										JOINT LeftHandPinky3
										{
											OFFSET 5.233047 0.000000 0.000000
											CHANNELS 3 Xrotation Yrotation Zrotation
											JOINT LeftHandPinky4
											{
												OFFSET 5.571716 0.000000 0.000000
												CHANNELS 3 Xrotation Yrotation Zrotation
												End Site
												{
													OFFSET -3.459808 4.342407 -0.466164
												}
											}
										}
									}
								}
								JOINT LeftHandRing1
								{
									OFFSET 22.726120 -0.094986 -6.500475
									CHANNELS 3 Xrotation Yrotation Zrotation
									JOINT LeftHandRing2
									{
										OFFSET 6.408615 0.000000 0.000000
										CHANNELS 3 Xrotation Yrotation Zrotation
										JOINT LeftHandRing3
										{
											OFFSET 6.150223 0.000000 0.000000
											CHANNELS 3 Xrotation Yrotation Zrotation
											JOINT LeftHandRing4
											{
												OFFSET 6.145386 0.000000 0.000000
												CHANNELS 3 Xrotation Yrotation Zrotation
												End Site
												{
													OFFSET -3.671402 4.923981 -0.202372
												}
											}
										}
									}
								}
								JOINT LeftHandMiddle1
								{
									OFFSET 23.373947 0.000000 0.000001
									CHANNELS 3 Xrotation Yrotation Zrotation
									JOINT LeftHandMiddle2
									{
										OFFSET 6.996567 0.000000 0.000000
										CHANNELS 3 Xrotation Yrotation Zrotation
										JOINT LeftHandMiddle3
										{
											OFFSET 7.015945 0.000000 0.000000
											CHANNELS 3 Xrotation Yrotation Zrotation
											JOINT LeftHandMiddle4
											{
												OFFSET 7.721573 0.000000 0.000000
												CHANNELS 3 Xrotation Yrotation Zrotation
												End Site
												{
													OFFSET -4.651108 6.158463 0.251582
												}
											}
										}
									}
								}
								JOINT LeftHandIndex1
								{
									OFFSET 21.310577 -0.490082 6.209344
									CHANNELS 3 Xrotation Yrotation Zrotation
									JOINT LeftHandIndex2
									{
										OFFSET 7.536453 0.000000 0.000000
										CHANNELS 3 Xrotation Yrotation Zrotation
										JOINT LeftHandIndex3
										{
											OFFSET 7.512344 0.000000 0.000000
											CHANNELS 3 Xrotation Yrotation Zrotation
											JOINT LeftHandIndex4
											{
												OFFSET 10.212402 0.000000 0.000001
												CHANNELS 3 Xrotation Yrotation Zrotation
												End Site
												{
													OFFSET -5.180801 8.690506 1.388433
												}
											}
										}
									}
								}
							}
						}
					}
				}
				JOINT RightShoulder
				{
					OFFSET -17.399500 24.608795 1.168800
					CHANNELS 3 Xrotation Yrotation Zrotation
					JOINT RightArm
					{
						OFFSET -18.980635 5.765305 1.818600
						CHANNELS 3 Xrotation Yrotation Zrotation
						JOINT RightForeArm
						{
							OFFSET -49.290169 0.000000 0.000000
							CHANNELS 3 Xrotation Yrotation Zrotation
							JOINT RightHand
							{
								OFFSET -31.562012 0.000000 0.000000
								CHANNELS 3 Xrotation Yrotation Zrotation
								JOINT RightHandThumb1
								{
									OFFSET -6.133995 -4.388519 7.076070
									CHANNELS 3 Xrotation Yrotation Zrotation
									JOINT RightHandThumb2
									{
										OFFSET -6.037666 -3.485840 3.485847
										CHANNELS 3 Xrotation Yrotation Zrotation
										JOINT RightHandThumb3
										{
											OFFSET -6.496506 -3.750763 3.750761
											CHANNELS 3 Xrotation Yrotation Zrotation
											JOINT RightHandThumb4
											{
												OFFSET -5.616882 -3.242905 3.242910
												CHANNELS 3 Xrotation Yrotation Zrotation
												End Site
												{
													OFFSET 1.254608 7.132141 0.375429
												}
											}
										}
									}
								}
								JOINT RightHandIndex1
								{
									OFFSET -21.310577 -0.490082 6.209344
									CHANNELS 3 Xrotation Yrotation Zrotation
									JOINT RightHandIndex2
									{
										OFFSET -7.536453 0.000000 0.000000
										CHANNELS 3 Xrotation Yrotation Zrotation
										JOINT RightHandIndex3
										{
											OFFSET -7.512344 0.000000 0.000000
											CHANNELS 3 Xrotation Yrotation Zrotation
											JOINT RightHandIndex4
											{
												OFFSET -10.212402 0.000000 0.000001
												CHANNELS 3 Xrotation Yrotation Zrotation
												End Site
												{
													OFFSET 5.180801 8.690506 1.388433
												}
											}
										}
									}
								}
								JOINT RightHandMiddle1
								{
									OFFSET -23.373947 0.000000 0.000001
									CHANNELS 3 Xrotation Yrotation Zrotation
									JOINT RightHandMiddle2
									{
										OFFSET -6.996567 0.000000 0.000000
										CHANNELS 3 Xrotation Yrotation Zrotation
										JOINT RightHandMiddle3
										{
											OFFSET -7.015945 0.000000 0.000000
											CHANNELS 3 Xrotation Yrotation Zrotation
											JOINT RightHandMiddle4
											{
												OFFSET -7.721573 0.000000 0.000000
												CHANNELS 3 Xrotation Yrotation Zrotation
												End Site
												{
													OFFSET 4.651108 6.158463 0.251582
												}
											}
										}
									}
								}
								JOINT RightHandRing1
								{
									OFFSET -22.726120 -0.094986 -6.500475
									CHANNELS 3 Xrotation Yrotation Zrotation
									JOINT RightHandRing2
									{
										OFFSET -6.408615 0.000000 0.000000
										CHANNELS 3 Xrotation Yrotation Zrotation
										JOINT RightHandRing3
										{
											OFFSET -6.150223 0.000000 0.000000
											CHANNELS 3 Xrotation Yrotation Zrotation
											JOINT RightHandRing4
											{
												OFFSET -6.145386 0.000000 0.000000
												CHANNELS 3 Xrotation Yrotation Zrotation
												End Site
												{
													OFFSET 3.671402 4.923981 -0.202372
												}
											}
										}
									}
								}
								JOINT RightHandPinky1
								{
									OFFSET -18.920792 -0.453171 -11.426712
									CHANNELS 3 Xrotation Yrotation Zrotation
									JOINT RightHandPinky2
									{
										OFFSET -4.919586 0.000000 0.000000
										CHANNELS 3 Xrotation Yrotation Zrotation
										JOINT RightHandPinky3
										{
											OFFSET -5.233047 0.000000 0.000000
											CHANNELS 3 Xrotation Yrotation Zrotation
											JOINT RightHandPinky4
											{
												OFFSET -5.571716 0.000000 0.000000
												CHANNELS 3 Xrotation Yrotation Zrotation
												End Site
												{
													OFFSET 3.459808 4.342407 -0.466164
												}
											}
										}
									}
								}
							}
						}
					}
				}
			}
		}
	}
	JOINT LeftUpLeg
	{
		OFFSET 19.899099 -7.885101 -3.429500
		CHANNELS 3 Xrotation Yrotation Zrotation
		JOINT LeftLeg
		{
			OFFSET 1.745560 -36.997807 10.304700
			CHANNELS 3 Xrotation Yrotation Zrotation
			JOINT LeftFoot
			{
				OFFSET -1.745558 -29.803308 -13.615400
				CHANNELS 3 Xrotation Yrotation Zrotation
				JOINT LeftToeBase
				{
					OFFSET 1.181900 -18.539904 15.226099
					CHANNELS 3 Xrotation Yrotation Zrotation
					JOINT LeftToe_End
					{
						OFFSET -0.863701 1.402801 16.534700
						CHANNELS 3 Xrotation Yrotation Zrotation
						End Site
						{
							OFFSET 0.000000 16.616566 0.000000
						}
					}
				}
			}
		}
	}
	JOINT RightUpLeg
	{
		OFFSET -19.899099 -7.885101 -3.429500
		CHANNELS 3 Xrotation Yrotation Zrotation
		JOINT RightLeg
		{
			OFFSET -1.745560 -36.997807 10.304700
			CHANNELS 3 Xrotation Yrotation Zrotation
			JOINT RightFoot
			{
				OFFSET 1.745558 -29.803308 -13.615400
				CHANNELS 3 Xrotation Yrotation Zrotation
				JOINT RightToeBase
				{
					OFFSET -1.181900 -18.539904 15.226099
					CHANNELS 3 Xrotation Yrotation Zrotation
					JOINT RightToe_End
					{
						OFFSET 0.863701 1.402801 16.534700
						CHANNELS 3 Xrotation Yrotation Zrotation
						End Site
						{
							OFFSET 0.000000 16.616566 0.000000
						}
					}
				}
			}
		}
	}
}
MOTION
Frames: 4
Frame Time: 0.033333
2.718515 91.618820 3.152455 -0.892696 1.583958 -5.026206 0.516412 -0.062427 3.037302 1.034803 -0.093304 5.738249 1.034803 -0.093304 5.738248 1.078767 -0.127615 -3.023406 1.544527 0.396599 -7.269214 0.000000 0.000000 0.000000 3.584025 -13.764179 -5.044304 5.297159 3.638723 -83.714999 -0.201984 -16.986247 -0.059026 -26.927502 4.596792 -8.926873 18.158987 -1.013672 11.037859 1.358766 32.831514 -3.241072 0.962532 9.481585 2.469528 0.000002 -0.000001 0.000001 5.483887 15.792268 -37.075343 1.204512 3.674879 -45.671136 0.450922 2.663473 -20.549442 -0.000000 -0.000001 -0.000004 2.441767 11.453645 -26.380902 1.612066 3.611880 -40.778897 0.517132 1.672923 -19.442895 -0.000001 0.000001 0.000002 0.898339 8.711664 -15.906290 0.809629 3.668827 -33.033387 0.167395 1.396957 -12.680961 0.000000 -0.000001 0.000004 0.337255 4.682325 -7.887257 0.352046 2.640658 -20.590442 0.025828 0.717436 -10.176832 -0.000000 -0.000000 0.000001 4.508132 3.324373 5.471488 -0.162981 0.249518 67.301522 -0.211143 19.963403 0.074301 -10.531512 -10.002502 10.057059 18.156369 1.010978 -11.042369 1.356390 -32.831002 3.239411 0.823136 -8.582387 -1.799048 -0.000002 0.000000 0.000002 0.337528 -4.685604 7.880052 0.352093 -2.640976 20.590363 -0.209451 -0.081907 13.844968 -0.000000 0.000000 0.000002 0.897908 -8.712373 15.899198 0.809769 -3.669316 33.033373 -1.462306 3.258243 16.537486 0.000000 0.000001 -0.000009 2.438753 -11.449034 26.373847 1.612265 -3.612418 40.778869 -1.927238 4.536083 19.276629 0.000001 0.000001 -0.000007 5.482404 -15.792642 37.068041 1.204761 -3.675481 45.671078 -1.755042 3.270192 12.635170 -0.000000 -0.000000 0.000002 -17.322043 11.020810 18.109063 24.940764 7.378904 1.678562 -5.712632 5.120087 -11.596304 -0.441963 -0.000002 -0.000002 0.000000 -0.000000 -0.000000 1.966903 -4.111543 10.597172 10.701121 -4.973453 3.478595 -11.794256 0.830232 -7.885116 -0.548656 -0.000004 0.000000 0.000000 0.000000 -0.000000 
2.702259 91.603203 3.209689 -0.853892 1.591861 -5.004992 0.520252 -0.079292 3.032573 1.043254 -0.127494 5.738569 1.043254 -0.127494 5.738568 1.078272 -0.122311 -3.184626 1.713596 0.302702 -7.149156 0.000000 0.000000 0.000000 3.592302 -13.832032 -4.983944 5.141745 3.406736 -83.797685 -0.193107 -16.693037 -0.055446 -25.788383 3.918772 -8.392247 18.158990 -1.013668 11.037848 1.358736 32.831510 -3.241019 0.962532 9.481595 2.469529 0.000000 -0.000000 -0.000001 5.050793 15.800888 -34.029775 1.106359 3.555350 -43.965002 0.398510 2.545230 -19.124077 -0.000001 -0.000001 -0.000002 2.320805 11.391454 -25.197953 1.489962 3.493978 -38.901377 0.447127 1.520486 -17.576339 -0.000000 -0.000001 0.000001 0.827096 8.606533 -14.581303 0.783316 3.626197 -32.476532 0.155120 1.348615 -12.127333 -0.000001 0.000000 0.000004 0.334278 4.648602 -7.494493 0.334504 2.593374 -20.036247 0.019142 0.667226 -9.623487 -0.000002 0.000001 0.000001 4.513753 3.322076 5.551316 0.161532 0.720279 67.146927 -0.178468 20.307879 0.064132 -8.472594 -7.511802 7.598188 18.008204 1.170667 -11.112470 1.234325 -32.808144 3.043477 0.580209 -8.058475 -1.714120 -0.000001 0.000001 0.000001 0.365858 -4.720802 7.719266 0.369862 -2.687535 21.137861 -0.209557 -0.074497 13.766934 -0.000001 -0.000001 -0.000003 0.892100 -8.707632 15.762603 0.837309 -3.712972 33.607106 -1.465918 3.251095 16.599190 0.000001 0.000001 -0.000006 2.395463 -11.396654 26.125397 1.660580 -3.656992 41.505892 -1.937827 4.517140 19.429501 0.000000 0.000000 -0.000005 5.301550 -15.783085 36.632173 1.245286 -3.722765 46.357874 -1.763237 3.255049 12.759972 -0.000001 -0.000001 0.000004 -17.321237 11.021044 18.106743 24.948376 7.346563 1.674714 -5.745199 5.153431 -11.623944 -0.464175 0.000005 -0.000004 -0.000000 -0.000002 -0.000000 1.956271 -4.083908 10.607417 10.744107 -5.001398 3.450353 -11.874095 0.830336 -7.874775 -0.606590 -0.000000 0.000002 0.000000 -0.000000 0.000000 
2.688670 91.581673 3.264099 -0.828712 1.606320 -4.977421 0.544131 -0.111247 3.025351 1.092444 -0.191058 5.736765 1.092444 -0.191057 5.736769 1.072811 -0.115587 -3.379518 1.778443 0.134145 -6.927253 0.000001 -0.000000 0.000000 3.595243 -13.953047 -4.961393 5.092908 3.285446 -83.862005 -0.182785 -16.744364 -0.052623 -22.825715 2.689534 -7.894116 18.158983 -1.013669 11.037843 1.358769 32.831504 -3.241072 0.962523 9.481599 2.469552 -0.000000 -0.000003 -0.000002 3.899169 15.661952 -26.224781 0.877492 3.244962 -39.711495 0.278795 2.239408 -15.504838 -0.000000 0.000002 -0.000002 2.010946 11.217336 -22.105339 1.206706 3.187547 -34.285736 0.296396 1.136539 -12.986894 -0.000000 -0.000000 0.000008 0.657503 8.332567 -11.219585 0.720399 3.520261 -31.106966 0.126915 1.229266 -10.765844 -0.000000 -0.000001 0.000008 0.323907 4.562150 -6.486601 0.293365 2.476366 -18.673655 0.004764 0.543482 -8.262593 -0.000001 0.000001 0.000002 4.536338 3.205731 5.719183 1.199719 2.796531 66.772804 -0.155330 21.290217 0.058591 -11.294297 -4.546504 4.765644 17.588825 1.622769 -11.306406 0.889336 -32.740645 2.490529 -0.108917 -6.581528 -1.456930 -0.000002 -0.000001 0.000001 0.444611 -4.821069 7.265003 0.422474 -2.818167 22.685157 -0.209803 -0.053587 13.546457 -0.000001 -0.000002 0.000003 0.877200 -8.699931 15.376308 0.917489 -3.834837 35.228675 -1.476084 3.230882 16.773510 0.000000 0.000001 -0.000006 2.275279 -11.246992 25.424264 1.800129 -3.779589 43.560566 -1.967475 4.463458 19.861459 -0.000000 -0.000000 0.000000 4.790500 -15.743328 35.402120 1.362826 -3.853725 48.299010 -1.786195 3.212156 13.112590 0.000000 -0.000001 0.000009 -17.308107 11.019572 18.107446 24.968310 7.308250 1.661394 -5.787779 5.180599 -11.651054 -0.486690 -0.000002 0.000001 0.000000 -0.000002 -0.000000 1.932330 -4.013050 10.618070 10.830767 -5.082514 3.384407 -11.980907 0.819077 -7.823084 -0.666406 -0.000000 -0.000002 0.000000 -0.000000 0.000000 
2.677190 91.564232 3.315538 -0.827204 1.591294 -4.949574 0.587324 -0.169144 3.016582 1.181395 -0.305304 5.730088 1.181395 -0.305304 5.730087 1.067171 -0.111481 -3.473480 1.836294 -0.090846 -6.701948 0.000000 0.000000 -0.000000 3.594290 -14.090700 -4.968424 5.300558 2.715487 -83.817834 -0.170504 -17.659686 -0.051734 -21.022696 1.248712 -6.954228 18.158987 -1.013666 11.037831 1.358768 32.831504 -3.241086 0.962535 9.481584 2.469514 0.000000 -0.000000 -0.000003 2.311934 15.086119 -15.684720 0.616592 2.819435 -34.207548 0.149596 1.820694 -10.677078 0.000001 0.000000 -0.000002 1.592665 10.937635 -17.790170 0.885626 2.769332 -28.455454 0.150669 0.636176 -7.189171 -0.000001 0.000000 -0.000000 0.457284 7.952767 -6.740871 0.644534 3.384272 -29.376329 0.095351 1.077532 -9.045447 -0.000000 0.000000 0.000004 0.312077 4.443841 -5.119668 0.245387 2.327154 -16.951993 -0.009200 0.386679 -6.542890 -0.000001 0.000001 0.000001 4.575735 2.947073 5.922966 2.147620 5.259441 66.351647 -0.162604 22.978394 0.065697 -19.397650 -1.670945 4.161138 16.934790 2.327518 -11.595670 0.353074 -32.627397 1.633326 -1.189353 -4.297859 -1.006256 -0.000001 -0.000001 0.000001 0.563184 -4.979368 6.559433 0.511163 -3.018181 25.089675 -0.210022 -0.021095 13.203899 -0.000001 -0.000003 -0.000002 0.853663 -8.686646 14.779838 1.048558 -4.019144 37.743291 -1.491754 3.199420 17.044317 0.000001 0.000001 0.000003 2.094243 -11.007659 24.340226 2.025255 -3.959784 46.750995 -2.012723 4.379615 20.532430 -0.000001 -0.000001 0.000005 3.997649 -15.644205 33.496624 1.554105 -4.049092 51.315898 -1.821336 3.145234 13.660398 -0.000002 -0.000000 0.000002 -17.261056 11.047246 18.110680 24.985732 7.272735 1.638295 -5.841711 5.214336 -11.667486 -0.509429 -0.000012 0.000001 -0.000000 0.000002 0.000000 1.931072 -3.981103 10.620940 10.908579 -5.081657 3.344293 -12.065753 0.820888 -7.806981 -0.726186 0.000001 0.000005 -0.000000 -0.000001 -0.000000 
